<?xml version="1.0" standalone="no"?><!DOCTYPE svg PUBLIC "-//W3C//DTD SVG 1.1//EN" "http://www.w3.org/Graphics/SVG/1.1/DTD/svg11.dtd"><svg t="1727075691225" class="icon" viewBox="0 0 1459 1024" version="1.1" xmlns="http://www.w3.org/2000/svg" p-id="1999" xmlns:xlink="http://www.w3.org/1999/xlink" width="68.390625" height="48"><path d="M1136.115052 917.850369c0 51.928346-41.542677 94.010537-92.66175 94.010537H157.029699c-51.119073 0-92.661749-42.082192-92.66175-94.010537V143.511064c0-51.928346 41.407798-94.010537 92.66175-94.010537h886.423603c51.119073 0 92.661749 42.082192 92.66175 94.010537v774.339305z" fill="#E9B135" p-id="2000"></path><path d="M493.687233 747.228662c-4.181243 0-7.95785-0.944152-11.599579-2.832455-9.306639-4.990516-14.297155-15.376185-14.297155-29.268704V481.787144c0-13.75764 5.260274-24.413066 14.432034-29.268704 9.17176-4.855638 20.906217-3.237092 32.236038 4.316123l168.733404 112.488935c11.060063 7.283456 17.399368 17.938883 17.399367 29.133825s-6.339305 21.850369-17.399367 29.268704l-168.733404 112.488936c-7.013699 4.720759-14.162276 7.013699-20.771338 7.013699z m0-279.199157c-1.079031 0-2.158061 0.269758-2.967334 0.674394-2.967334 1.618546-4.720759 6.474183-4.720759 13.083245v233.475237c0 6.609062 1.753425 11.4647 4.720759 12.948367 2.832455 1.618546 7.95785 0.269758 13.353003-3.37197l168.733404-112.488936c5.934668-4.046365 9.306639-8.902002 9.171759-13.892519 0-4.990516-3.237092-9.846154-9.171759-13.892518l-168.733404-112.623814c-3.776607-2.562698-7.553214-3.911486-10.385669-3.911486z" fill="#070606" p-id="2001"></path><path d="M1048.443819 0H114.407992c-60.56059 0-109.791359 49.230769-109.79136 109.791359v804.417282c0 60.56059 49.230769 109.791359 109.79136 109.791359H1048.443819c60.56059 0 109.791359-49.230769 109.791359-109.791359V109.791359c0.134879-60.56059-49.09589-109.791359-109.791359-109.791359zM261.695663 24.547945h215.266596V224.708114H261.695663V24.547945z m235.633298 0H727.432228V224.708114H497.328961V24.547945z m250.604847 0H941.889551V224.708114H747.933808V24.547945zM29.164577 109.791359C29.164577 62.718651 67.335283 24.547945 114.407992 24.547945h126.78609V224.708114H29.164577v-114.916755z m1104.657535 804.417282c0 47.072708-38.305585 85.378293-85.378293 85.378293H114.407992c-47.072708 0-85.378293-38.305585-85.378293-85.378293V249.12118h1104.657534v665.087461z m0-689.500527H962.391132V24.547945H1048.443819c47.072708 0 85.378293 38.305585 85.378293 85.378293v114.781876z" fill="" p-id="2002"></path><path d="M1043.318424 999.586934c51.119073 0 92.661749-41.812434 92.661749-93.471023V428.914647c0 306.040042-251.818757 570.537408-557.858799 570.537408" fill="#D78E14" p-id="2003"></path><path d="M661.881121 620.57745l-138.790305 93.605901c-35.877766 30.347734-27.515279 6.069547-27.51528-21.71549V516.046365c0-16.185458 12.139094-22.120126 26.706007-13.083246l139.599578 85.108535c29.538462 10.385669 14.566913 23.603793 0 32.505796z m0 0" fill="#EEBF2F" p-id="2004"></path></svg>